:SAMPLES-PER-SECOND 30
:FULLY-SPECIFIED
:DEGREES
1199
root  -7.25443 39.3238 16.47 -178.305 -46.0764 174.078
RightUpLeg  0.477756 1.79729 -14.4355
RightLeg  43.311 5.65284 5.39504
RightFoot  -2.0333 -0.789211 9.5249
RightToes  5.82063e-011 0 -3.6325e-017
Spine  3.21834 1.34042 -1.584
Spine1  7.08834 1.65397 -4.16071
HEad  -22.3229 5.44385 -3.325
LeftShoulder1  0.216626 2.91497 -30.6516
LeftArm  -6.23555 15.5932 -37.346
LeftForeArm  19.1701 -7.8457 -7.24317
LeftHand  -0.086122 9.61004 -0.884778
RightShoulder  -0.712571 -5.46775 29.5981
RightArm  16.6215 0.682915 46.1289
RightForeArm  11.036 16.3031 5.24026
RightHand  -0.115299 2.8965 -1.8454
LeftUpLeg  -10.4123 9.19091 -0.24642
LeftLeg  15.2194 5.71737 -0.301757
LeftFoot  -0.581963 -0.137864 1.50214
LeftToes  -1.20963e-009 8.6283e-011 2.04439e-011
1200
root  -7.81876 39.445 16.3866 -178.445 -43.2193 174.556
RightUpLeg  -3.43824 -0.469634 -14.3595
RightLeg  43.6859 4.71717 4.52445
RightFoot  -3.29579 -0.656393 8.97236
RightToes  5.82063e-011 0 -3.6325e-017
Spine  4.15493 0.676986 -3.00724
Spine1  6.30504 0.6875 -3.06269
HEad  -22.1271 6.1208 -2.50745
LeftShoulder1  0.249031 2.82288 -30.4582
LeftArm  -6.89597 13.6077 -36.2797
LeftForeArm  17.7574 -8.37283 -6.84699
LeftHand  -0.0807753 9.14527 -0.894977
RightShoulder  -0.670195 -5.36429 29.3161
RightArm  17.1023 0.191706 45.8224
RightForeArm  7.73974 19.5137 4.61887
RightHand  -0.170639 3.91437 -2.36352
LeftUpLeg  -9.10219 9.17225 0.156532
LeftLeg  14.4624 8.5432 -0.424574
LeftFoot  -1.2415 -0.1224 1.46843
LeftToes  -1.20963e-009 8.6283e-011 2.04439e-011
1201
root  -8.35714 39.5427 16.2873 -178.927 -40.3917 175.08
RightUpLeg  -6.64317 -3.76799 -13.6158
RightLeg  42.3509 3.7231 3.34848
RightFoot  -4.8287 -0.454946 7.40645
RightToes  5.82063e-011 0 -3.6325e-017
Spine  5.36956 0.161057 -3.85543
Spine1  5.38682 -0.014134 -2.308
HEad  -21.5707 5.16235 -1.7655
LeftShoulder1  0.284856 2.72073 -30.2645
LeftArm  -7.8219 11.2682 -34.9246
LeftForeArm  16.321 -8.5397 -6.41285
LeftHand  -0.0499668 9.05769 -0.0129726
RightShoulder  -0.67135 -5.369 29.2877
RightArm  16.4373 -0.158797 45.316
RightForeArm  5.31114 22.0066 4.56711
RightHand  -0.301751 5.04006 -3.67376
LeftUpLeg  -7.54903 9.15551 0.482736
LeftLeg  13.8228 11.3478 -0.328443
LeftFoot  -2.02494 -0.0929503 1.29212
LeftToes  -1.20963e-009 8.6283e-011 2.04439e-011
1202
root  -8.87662 39.6375 16.1477 -178.927 -37.2344 175.205
RightUpLeg  -9.6649 -7.88056 -12.532
RightLeg  39.3788 2.67994 2.09236
RightFoot  -6.52408 -0.322049 6.61396
RightToes  5.82063e-011 0 -3.6325e-017
Spine  5.45907 -0.0909041 -4.6868
Spine1  5.49095 -0.327167 -1.61701
HEad  -21.0629 3.8196 -0.886876
LeftShoulder1  0.279999 2.71957 -29.5814
LeftArm  -9.39477 8.84858 -34.0757
LeftForeArm  14.8791 -9.11047 -5.668
LeftHand  -0.0378584 9.0791 0.311433
RightShoulder  -0.677844 -5.39482 29.1426
RightArm  15.4316 -0.0411164 45.0993
RightForeArm  5.98116 23.6587 4.74102
RightHand  -0.308939 5.24444 -3.67873
LeftUpLeg  -5.99104 9.03837 0.425409
LeftLeg  12.7256 14.5588 -0.263773
LeftFoot  -2.53639 -0.0731301 1.14767
LeftToes  -1.20963e-009 8.6283e-011 2.04439e-011
1203
root  -9.36758 39.7037 15.9835 -178.619 -34.4346 175.214
RightUpLeg  -12.2411 -12.9691 -10.6821
RightLeg  34.9205 0.978366 0.501852
RightFoot  -7.55969 -0.259889 6.31088
RightToes  5.82063e-011 0 -3.6325e-017
Spine  5.23874 -0.525609 -5.30218
Spine1  5.41781 -0.781882 -1.07057
HEad  -20.0893 2.27405 -0.401054
LeftShoulder1  0.287943 2.68249 -28.9425
LeftArm  -10.9513 7.50401 -33.2267
LeftForeArm  12.0831 -10.8227 -4.83053
LeftHand  0.0038419 9.92597 1.4163
RightShoulder  -0.651129 -5.33254 28.8882
RightArm  14.9429 -0.00112339 45.0525
RightForeArm  6.18727 24.5779 4.93882
RightHand  -0.343704 5.31063 -4.03238
LeftUpLeg  -4.89758 8.8751 0.0435954
LeftLeg  11.8 17.4749 -0.0488368
LeftFoot  -3.03928 -0.0462101 0.890042
LeftToes  -1.20963e-009 8.6283e-011 2.04439e-011
1204
root  -9.8529 39.7878 15.7531 -178.383 -31.4318 175.123
RightUpLeg  -14.1922 -18.3923 -8.03538
RightLeg  29.2924 -1.67918 -1.23428
RightFoot  -7.61298 -0.237044 5.69353
RightToes  5.82063e-011 0 -3.6325e-017
Spine  5.15204 -0.835015 -5.95127
Spine1  4.81828 -1.17256 -0.278291
HEad  -18.9741 0.217562 0.0185749
LeftShoulder1  0.296961 2.64537 -28.4534
LeftArm  -11.3115 7.71004 -32.0354
LeftForeArm  8.07969 -14.1824 -4.39035
LeftHand  0.0550446 9.66826 2.91016
RightShoulder  -0.676142 -5.38871 29.1695
RightArm  15.8235 0.083507 44.3953
RightForeArm  5.75796 24.854 5.02337
RightHand  -0.381935 5.2754 -4.47254
LeftUpLeg  -3.33409 8.86439 -0.38273
LeftLeg  10.3486 20.3027 -0.182638
LeftFoot  -3.23526 -0.023775 0.612319
LeftToes  -1.20963e-009 8.6283e-011 2.04439e-011
1205
root  -10.3517 39.8539 15.4706 -177.931 -28.2825 174.539
RightUpLeg  -15.9315 -24.9679 -4.89661
RightLeg  23.4452 -4.10036 -2.2471
RightFoot  -7.08194 -0.241034 5.09054
RightToes  5.82063e-011 0 -3.6325e-017
Spine  4.35801 -1.08225 -6.4847
Spine1  4.97938 -1.41029 0.258941
HEad  -18.0416 -2.32275 0.356144
LeftShoulder1  0.231879 2.83314 -28.4341
LeftArm  -12.4318 8.12043 -30.7873
LeftForeArm  5.32253 -18.1148 -4.11833
LeftHand  0.12291 9.10804 5.075
RightShoulder  -0.662954 -5.36191 28.9642
RightArm  15.934 -0.349568 44.3483
RightForeArm  5.92336 24.8187 5.00663
RightHand  -0.362859 4.32709 -4.61098
LeftUpLeg  -1.37817 8.27375 -1.50619
LeftLeg  8.01431 23.919 -0.456205
LeftFoot  -3.23269 0.0084777 0.152644
LeftToes  -1.20963e-009 8.6283e-011 2.04439e-011
1206
root  -10.7919 39.8652 15.1432 -177.369 -25.2557 173.754
RightUpLeg  -17.6775 -32.4055 -1.12708
RightLeg  17.7762 -5.59071 -1.92497
RightFoot  -5.51508 -0.232509 4.01542
RightToes  5.82063e-011 0 -3.6325e-017
Spine  3.78129 -1.25591 -6.74853
Spine1  4.65088 -1.45516 0.129053
HEad  -17.1058 -4.83719 1.05236
LeftShoulder1  0.23365 2.82416 -28.2304
LeftArm  -14.0512 9.31399 -29.584
LeftForeArm  4.31236 -22.6476 -4.60415
LeftHand  0.0998382 9.24792 4.38076
RightShoulder  -0.745232 -5.56312 29.5295
RightArm  16.4539 -1.02325 43.7372
RightForeArm  5.53056 24.1918 4.88535
RightHand  -0.347677 4.65576 -4.30579
LeftUpLeg  0.224376 7.49401 -2.96001
LeftLeg  6.03262 27.6359 -0.71119
LeftFoot  -3.28083 0.034734 -0.211014
LeftToes  -1.20963e-009 8.6283e-011 2.04439e-011
1207
root  -11.1784 39.9084 14.7528 -177.488 -22.474 173.266
RightUpLeg  -17.644 -33.6346 0.731193
RightLeg  13.2907 -13.231 -0.328875
RightFoot  -3.31042 0.073579 -1.40956
RightToes  5.82063e-011 0 -3.6325e-017
Spine  3.1909 -1.33318 -6.83826
Spine1  4.97401 -1.58846 0.595215
HEad  -16.6622 -8.11896 1.35529
LeftShoulder1  0.180266 2.98343 -28.5262
LeftArm  -16.9611 9.88348 -28.7148
LeftForeArm  5.3052 -26.0916 -5.31838
LeftHand  0.0990921 8.05101 5.72535
RightShoulder  -0.77842 -5.64253 29.7525
RightArm  17.0077 -1.79717 43.4435
RightForeArm  4.7529 22.9103 4.69837
RightHand  -0.372605 4.45617 -4.67322
LeftUpLeg  2.60909 6.97584 -3.95803
LeftLeg  3.39916 30.8436 -1.66263
LeftFoot  -3.19597 0.0571819 -0.521935
LeftToes  -1.20963e-009 8.6283e-011 2.04439e-011
1208
root  -11.5604 39.8923 14.3016 -177.816 -19.8236 172.526
RightUpLeg  -15.19 -24.6436 -1.88903
RightLeg  9.9536 -29.215 2.69623
RightFoot  -1.50079 0.649573 -7.4865
RightToes  5.82063e-011 0 -3.6325e-017
Spine  2.6442 -1.40041 -6.72363
Spine1  5.48532 -1.69957 0.777941
HEad  -16.4167 -11.4428 1.50234
LeftShoulder1  0.125647 3.14417 -28.7924
LeftArm  -17.8549 10.2526 -28.2357
LeftForeArm  6.74581 -28.9151 -5.9024
LeftHand  0.0331013 7.01733 4.6975
RightShoulder  -0.798135 -5.70095 29.69
RightArm  17.0996 -2.58826 43.4704
RightForeArm  4.59481 20.7274 4.62391
RightHand  -0.352506 4.65134 -4.36382
LeftUpLeg  4.95991 6.60591 -5.08152
LeftLeg  1.52908 33.7407 -2.75404
LeftFoot  -3.54603 0.0842176 -0.919535
LeftToes  -1.20963e-009 8.6283e-011 2.04439e-011
